<svg width="375" height="72" viewBox="0 0 375 72" fill="none" xmlns="http://www.w3.org/2000/svg">
<rect width="375" height="72" fill="white"/>
<path d="M171.375 35.2498C172.411 35.2498 173.25 34.4104 173.25 33.375C173.25 32.3395 172.411 31.5001 171.375 31.5001C170.34 31.5001 169.5 32.3396 169.5 33.3751V35.2498H171.375ZM166.125 35.2498C167.161 35.2498 168 34.4103 168 33.3748V28.1251C168 27.0896 167.161 26.2501 166.125 26.2501C165.089 26.2501 164.25 27.0896 164.25 28.1251V33.3748C164.25 34.4103 165.089 35.2498 166.125 35.2498Z" fill="#2EB67D"/>
<path d="M155.625 36.7502C154.589 36.7502 153.75 37.5896 153.75 38.625C153.75 39.6605 154.589 40.4999 155.625 40.4999C156.66 40.4999 157.5 39.6604 157.5 38.6249V36.7502H155.625ZM160.875 36.7502C159.839 36.7502 159 37.5897 159 38.6252V43.8749C159 44.9104 159.839 45.7499 160.875 45.7499C161.911 45.7499 162.75 44.9104 162.75 43.8749V38.6252C162.75 37.5897 161.911 36.7502 160.875 36.7502Z" fill="#E01E5A"/>
<path d="M164.25 43.8752C164.25 44.9106 165.09 45.75 166.125 45.75C167.16 45.75 168 44.9105 168 43.8751C168 42.8395 167.16 42 166.125 42L164.25 42L164.25 43.8752ZM164.25 38.625C164.25 39.6605 165.09 40.5 166.125 40.5L171.375 40.5C172.41 40.5 173.25 39.6605 173.25 38.625C173.25 37.5895 172.41 36.75 171.375 36.75L166.125 36.75C165.09 36.75 164.25 37.5895 164.25 38.625Z" fill="#ECB22E"/>
<path d="M162.75 28.1248C162.75 27.0894 161.91 26.25 160.875 26.25C159.84 26.25 159 27.0895 159 28.1249C159 29.1605 159.84 30 160.875 30L162.75 30L162.75 28.1248ZM162.75 33.375C162.75 32.3395 161.91 31.5 160.875 31.5L155.625 31.5C154.59 31.5 153.75 32.3395 153.75 33.375C153.75 34.4105 154.59 35.25 155.625 35.25L160.875 35.25C161.91 35.25 162.75 34.4105 162.75 33.375Z" fill="#36C5F0"/>
<g clip-path="url(#clip0_4627_392612)">
<path fill-rule="evenodd" clip-rule="evenodd" d="M211.5 24C204.872 24 199.5 29.3808 199.5 36.0204C199.5 41.3304 202.938 45.8364 207.707 47.4252C208.307 47.5356 208.525 47.1648 208.525 46.8456C208.525 46.5612 208.516 45.804 208.51 44.802C205.171 45.528 204.467 43.1904 204.467 43.1904C203.922 41.8008 203.135 41.4312 203.135 41.4312C202.045 40.6872 203.218 40.7016 203.218 40.7016C204.421 40.7856 205.055 41.94 205.055 41.94C206.125 43.776 207.864 43.2456 208.547 42.9384C208.657 42.162 208.967 41.6328 209.31 41.3328C206.646 41.0292 203.844 39.9972 203.844 35.3916C203.844 34.08 204.312 33.006 205.079 32.166C204.955 31.8624 204.544 30.6396 205.196 28.986C205.196 28.986 206.204 28.662 208.496 30.2172C209.475 29.9502 210.485 29.8142 211.5 29.8128C212.52 29.8176 213.546 29.9508 214.505 30.2172C216.796 28.662 217.801 28.9848 217.801 28.9848C218.456 30.6396 218.044 31.8624 217.921 32.166C218.689 33.006 219.155 34.08 219.155 35.3916C219.155 40.0092 216.348 41.0256 213.676 41.3232C214.106 41.694 214.489 42.4272 214.489 43.5492C214.489 45.1548 214.475 46.452 214.475 46.8456C214.475 47.1672 214.691 47.5416 215.3 47.424C217.69 46.6225 219.767 45.0904 221.239 43.0441C222.71 40.9977 223.501 38.5408 223.5 36.0204C223.5 29.3808 218.126 24 211.5 24Z" fill="black"/>
</g>
<defs>
<clipPath id="clip0_4627_392612">
<rect width="24" height="24" fill="white" transform="translate(199.5 24)"/>
</clipPath>
</defs>
</svg>
